<?xml version="1.0" encoding="UTF-8" standalone="no"?>
<!-- Created with Inkscape (http://www.inkscape.org/) -->

<svg
   version="1.1"
   id="svg1167"
   xml:space="preserve"
   width="682.66669"
   height="682.66669"
   viewBox="0 0 682.66669 682.66669"
   xmlns="http://www.w3.org/2000/svg"
   xmlns:svg="http://www.w3.org/2000/svg"><defs
     id="defs1171"><clipPath
       clipPathUnits="userSpaceOnUse"
       id="clipPath1181"><path
         d="M 0,512 H 512 V 0 H 0 Z"
         id="path1179" /></clipPath></defs><g
     id="g1173"
     transform="matrix(1.3333333,0,0,-1.3333333,0,682.66667)"><g
       id="g1175"><g
         id="g1177"
         clip-path="url(#clipPath1181)"><g
           id="g1183"
           transform="translate(388.7803,157.4687)"><path
             d="m 0,0 c 0,-82.69 -67.278,-149.969 -149.969,-149.969 -82.7,0 -149.979,67.279 -149.979,149.969 0,27.922 7.667,54.093 21.011,76.496 13.363,22.44 32.407,41.114 55.137,54.022 6.331,3.595 14.19,-0.959 14.19,-8.24 V 18.882 c 0,-4.322 -5.226,-6.487 -8.282,-3.431 l -16.929,16.928 c -3.505,3.505 -9.458,2.004 -10.929,-2.729 -2.912,-9.373 -4.48,-19.335 -4.48,-29.65 0,-55.276 44.975,-100.251 100.261,-100.251 55.083,0 99.938,44.662 100.249,99.674 V 248.145 H 0 Z"
             style="fill:#a6b6c4;fill-opacity:1;fill-rule:nonzero;stroke:none"
             id="path1185" /></g><g
           id="g1187"
           transform="translate(339.0605,359.5332)"><path
             d="m 0,0 c 7.895,-2.293 16.235,-3.527 24.86,-3.527 8.624,0 16.965,1.234 24.86,3.527 V 46.081 H 0 Z"
             style="fill:#879caf;fill-opacity:1;fill-rule:nonzero;stroke:none"
             id="path1189" /></g><g
           id="g1191"
           transform="translate(363.9199,424.1592)"><path
             d="m 0,0 c -11.649,0 -21.093,9.444 -21.093,21.094 0,11.649 9.444,21.093 21.093,21.093 11.65,0 21.094,-9.444 21.094,-21.093 C 21.094,9.444 11.65,0 0,0 m 0,80.341 c -32.721,0 -59.247,-26.526 -59.247,-59.247 0,-32.721 26.526,-59.247 59.247,-59.247 32.722,0 59.248,26.526 59.248,59.247 0,32.721 -26.526,59.247 -59.248,59.247"
             style="fill:#a6b6c4;fill-opacity:1;fill-rule:nonzero;stroke:none"
             id="path1193" /></g><g
           id="g1195"
           transform="translate(172.2739,23.0942)"><path
             d="m 0,0 c 20.062,-9.974 42.654,-15.594 66.538,-15.594 82.69,0 149.968,67.278 149.968,149.969 V 368.38 c -7.562,-3.501 -15.979,-5.468 -24.86,-5.468 -8.881,0 -17.298,1.967 -24.859,5.469 v -47.675"
             style="fill:none;stroke:#000000;stroke-width:15;stroke-linecap:round;stroke-linejoin:round;stroke-miterlimit:10;stroke-dasharray:none;stroke-opacity:1"
             id="path1197" /></g><g
           id="g1199"
           transform="translate(339.0605,313.8223)"><path
             d="m 0,0 v -156.931 c -0.312,-55.011 -45.166,-99.673 -100.249,-99.673 -55.287,0 -100.261,44.975 -100.261,100.251 0,10.315 1.568,20.277 4.48,29.65 1.471,4.733 7.424,6.234 10.929,2.729 l 16.929,-16.928 c 3.056,-3.056 8.281,-0.892 8.281,3.43 v 103.397 c 0,7.281 -7.859,11.835 -14.189,8.24 -22.73,-12.908 -41.774,-31.582 -55.137,-54.022 -13.345,-22.403 -21.011,-48.575 -21.011,-76.496 0,-48.126 22.793,-91.025 58.148,-118.485"
             style="fill:none;stroke:#000000;stroke-width:15;stroke-linecap:round;stroke-linejoin:round;stroke-miterlimit:10;stroke-dasharray:none;stroke-opacity:1"
             id="path1201" /></g><g
           id="g1203"
           transform="translate(363.9199,424.1597)"><path
             d="m 0,0 c -11.649,0 -21.093,9.444 -21.093,21.093 0,11.65 9.444,21.094 21.093,21.094 11.65,0 21.094,-9.444 21.094,-21.094 C 21.094,9.444 11.65,0 0,0 Z m 0,80.34 c -32.721,0 -59.246,-26.526 -59.246,-59.247 0,-32.721 26.525,-59.247 59.246,-59.247 32.722,0 59.248,26.526 59.248,59.247 C 59.248,53.814 32.722,80.34 0,80.34 Z"
             style="fill:none;stroke:#000000;stroke-width:15;stroke-linecap:round;stroke-linejoin:round;stroke-miterlimit:10;stroke-dasharray:none;stroke-opacity:1"
             id="path1205" /></g></g></g></g></svg>
