<?xml version="1.0" encoding="utf-8"?>
<!-- Generator: Adobe Illustrator 27.5.0, SVG Export Plug-In . SVG Version: 6.00 Build 0)  -->
<svg version="1.1" id="Layer_1" xmlns="http://www.w3.org/2000/svg" xmlns:xlink="http://www.w3.org/1999/xlink" x="0px" y="0px"
	 viewBox="0 0 512 512" style="enable-background:new 0 0 512 512;" xml:space="preserve">
<style type="text/css">
	.st0{fill:#A6B6C4;}
	.st1{fill:#879CAF;}
</style>
<path class="st0" d="M393,357.5c0,85.2-69.3,154.5-154.5,154.5C153.3,512,84,442.7,84,357.5c0-28.8,7.9-55.7,21.6-78.8
	c13.8-23.1,33.4-42.4,56.8-55.7c6.5-3.7,14.6,1,14.6,8.5v106.5c0,4.5-5.4,6.7-8.5,3.5l-17.4-17.4c-3.6-3.6-9.7-2.1-11.3,2.8
	c-3,9.7-4.6,19.9-4.6,30.5c0,56.9,46.3,103.3,103.3,103.3c56.8,0,103-46,103.3-102.7V101.9H393V357.5z"/>
<path class="st1" d="M341.8,149.3c8.1,2.4,16.7,3.6,25.6,3.6c8.9,0,17.5-1.3,25.6-3.6v-47.5h-51.2V149.3z"/>
<path class="st0" d="M367.4,0c-33.7,0-61,27.3-61,61s27.3,61,61,61s61-27.3,61-61S401.1,0,367.4,0z M367.4,82.8
	c-12,0-21.7-9.7-21.7-21.7s9.7-21.7,21.7-21.7S389.1,49,389.1,61S379.4,82.8,367.4,82.8z"/>
</svg>
