<svg height="500" viewBox="0 0 360 240" width="750" xmlns="http://www.w3.org/2000/svg" xmlns:xlink="http://www.w3.org/1999/xlink"><defs><path id="a" d="M0 215a32 32 0 0032-32v-16h31a32 32 0 000-64H32V32h199v31a32 32 0 0064 0V32h28a32 32 0 0032-32H0z" transform="scale(.24)"/></defs><path d="M0 0h360v240H0z" fill="#fff"/><path d="M270 0v60h90V0zm0 60H90v120h180v-60zM90 180H0v60h90z" fill="#9d2235"/><g transform="translate(90 180)"><use fill="#9d2235" height="100%" width="100%" xlink:href="#a"/><use fill="#fff" height="100%" transform="scale(-1 1)" width="100%" xlink:href="#a"/><use fill="#fff" height="100%" transform="scale(1 -1)" width="100%" xlink:href="#a"/><use fill="#9d2235" height="100%" transform="scale(-1)" width="100%" xlink:href="#a"/></g><g transform="translate(270 60)"><use fill="#9d2235" height="100%" width="100%" xlink:href="#a"/><use fill="#fff" height="100%" transform="scale(-1 1)" width="100%" xlink:href="#a"/><use fill="#fff" height="100%" transform="scale(1 -1)" width="100%" xlink:href="#a"/><use fill="#9d2235" height="100%" transform="scale(-1)" width="100%" xlink:href="#a"/></g><path d="M180 120h180v120H180zM0 0h180v120H0z" fill="#eaaa00"/><path d="M0 0v20l30 20V0zm30 0l30 20V0zm30 20v40l30 20V40zm30 20l30 20V0H90zm30 20v40l30 20V80zm30 20l30 20V0h-30zm-30 20L90 80v40h30zM60 60L30 40v80h30zm120 60v20l30 20v-40zm30 0l30 20v-20zm30 20v40l30 20v-40zm30 20l30 20v-60h-30zm30 20v40l30 20v-40zm30 20l30 20V120h-30zm-30 20l-30-20v40h30zm-60-40l-30-20v80h30z"/></svg>