<?xml version="1.0" encoding="UTF-8"?>
<svg id="Layer_1" data-name="Layer 1" xmlns="http://www.w3.org/2000/svg" viewBox="0 0 156.87 200">
  <defs>
    <style>
      .cls-1 {
        fill: #fff;
      }

      .cls-2 {
        fill: #a5b6c4;
      }
    </style>
  </defs>
  <path class="cls-1" d="m86.55,143.37c9.53-16.8,11.7-34.2,7.44-52.33-.25-1.03-.51-2.06-.8-3.09-.06.19-.12.39-.17.58-2.39,8.02-4.87,16.31-7.36,24.46-1.76,5.75-4.7,10.66-8.72,14.59-.45.44-.91.85-1.38,1.25l-8.6,30.83s13.51-4.5,19.6-16.3"/>
  <path class="cls-2" d="m22.83,157.78l-8.73,31.29,5.83,1.63,8.49-30.43c-1.91-.69-3.78-1.52-5.59-2.49"/>
  <path class="cls-2" d="m49.13,88.56l-6.49-1.81-9.59,34.38c.87,1.96,2.02,3.83,3.48,5.61.3.37.63.7.95,1.05l10.99-39.41.65.18Z"/>
  <polygon class="cls-2" points="55.46 108.91 63.84 107.86 57.21 102.66 55.46 108.91"/>
  <path class="cls-2" d="m55.25,116.26l-5.47-1.53-1.29,4.6c-.43,1.55.43,3.05,2,3.49,1.55.43,3.04-.41,3.47-1.96l1.28-4.6Z"/>
  <path class="cls-2" d="m61.24,117.93l-4.94-1.38-1.15,4.13c-.37,1.31.39,2.74,1.8,3.13,1.41.39,2.75-.36,3.14-1.75l1.15-4.13Z"/>
  <path class="cls-2" d="m47.21,164.29l.66.18-.11-.49c-.18.1-.36.2-.55.3"/>
  <polygon class="cls-2" points="61.22 171.56 73.04 129.19 81.83 97.68 75.99 96.05 65.49 133.71 57.98 160.63 47.45 198.37 53.28 200 61.22 171.56"/>
  <path class="cls-2" d="m64.27,134.16l10.71-38.39-25.48-7.11-11.17,40.03c1.53,1.49,3.25,2.74,5.1,3.77.04-.24.09-.48.15-.72,1.13-4.07,5.05-6.29,9.07-5.16,3.97,1.11,6.15,4.93,5.13,8.93-.43.03-.87.06-1.31.07.02-.07.05-.14.07-.22.93-3.33-.88-6.57-4.25-7.51-3.37-.94-6.6.9-7.53,4.23-.1.34-.15.68-.19,1.01.14.07.3.12.44.19.03-.01.05-.03.07-.04,1.59-.85,3.57-1.31,5.52-.84,1.81.47,3.37,1.71,4.44,3.19.07.1.15.2.22.31.22.34.41.69.59,1.05.22.44.43.88.6,1.33.37.95.65,1.93.83,2.92.67,3.7.25,7.45-.83,10.96-1.13,3.49-2.93,6.81-5.6,9.46-.09.09-.18.17-.28.25-.56.53-1.16,1.04-1.8,1.49l.44,1.92-.24.85-3.7-1.03c-1.6.46-3.37.49-4.96-.1-1.15-.46-2.11-1.2-2.86-2.08l-2.17-.6.05-.16c-2-.35-3.99-.86-5.94-1.51l-8.47,30.35-.79-.22,26.27,7.33,10.4-37.27,7.44-26.66Zm-14.63-23.22l.38-1.37,4.19-.52,2-7.18-3.31-2.61.37-1.33,12.08,9.59-.41,1.47-15.3,1.95Zm7.14,14.17c-1.41-.39-2.37-1.56-2.52-2.76-.8,1.49-2.53,2.18-4.3,1.69-2.12-.59-3.24-2.64-2.65-4.76l1.69-6.05,13.69,3.82-1.55,5.58c-.54,1.94-2.41,3.03-4.35,2.48m-24.72,48.83l2.45-8.79.97.27,4.5,7.24c.76,1.17,1.52,2.13,2.63,2.44,1.57.44,2.95-.52,3.41-2.17.41-1.47-.05-2.9-1.11-4.01l1-.68c1.29,1.3,1.84,3.21,1.32,5.09-.66,2.36-2.69,3.67-4.91,3.06-1.45-.4-2.37-1.47-3.23-2.85l-3.91-6.35-1.97,7.06-1.15-.32Zm12.18,10.15c-.72,2.58-2.73,3.96-4.75,3.4-1.45-.4-2.38-1.67-2.49-3.24-1,1.52-2.66,2.25-4.34,1.78-2.26-.63-3.35-3.09-2.56-5.91.5-1.8,1.69-3.38,3.29-4.21l.68,1c-1.36.67-2.34,1.96-2.76,3.46-.59,2.12.19,3.99,1.84,4.45,1.65.46,3.29-.68,3.83-2.63l.6-2.14,1.07.3-.6,2.14c-.48,1.73.24,3.29,1.64,3.69,1.43.4,2.87-.63,3.4-2.53.38-1.37.21-2.83-.57-3.86l1.05-.48c.93,1.35,1.13,3.14.67,4.78"/>
  <path class="cls-1" d="m54.26,141.61c-.04-.44-.1-.88-.17-1.31-.07-.44-.17-.88-.29-1.3-.17-.64-.39-1.27-.67-1.86-.34-.69-.77-1.31-1.29-1.84-.5-.51-1.08-.93-1.75-1.22-1.08-.42-2.34-.46-3.58-.17-.51-.19-.99-.42-1.48-.64-.14-.07-.3-.12-.44-.19-.39-.19-.77-.41-1.15-.62-1.85-1.03-3.57-2.27-5.1-3.77-.29-.29-.56-.6-.84-.91-.32-.35-.65-.68-.95-1.05-1.45-1.78-2.61-3.65-3.48-5.61-2.53-5.73-2.55-12.23-.01-19.39,3.16-8.95,8.84-16.94,17.86-25.16,11.81-10.76,25.12-19.75,38-28.45,4.78-3.23,14.14-9.29,22.39-14.64,5.66-3.67,10.95-7.09,14.21-9.25l31.36-20.11c-6.76.66-14.25,1.03-21.83.6-6.06-.35-13.91-1.21-21.48-4.73-.08,3.44-.15,6.88-.21,10.33l-.03,2.02-1.75,1.02c-7.86,4.56-21.81,12.73-25.85,15.16-16.77,10.08-36.19,22.42-53.14,37.47-13.29,11.8-21.6,22.14-26.94,33.55C1.81,107.7.02,114.65,0,121.43c-.03,11.1,5.06,22.08,13.97,30.12,2.74,2.47,5.72,4.55,8.86,6.23,1.82.97,3.69,1.8,5.59,2.49.33.12.66.24.99.36,1.95.65,3.93,1.16,5.94,1.51.57.1,1.14.18,1.72.25.78.1,1.55.18,2.33.24.73.05,1.45.08,2.18.09,1.1.01,2.21-.03,3.3-.11.08-.04.15-.06.23-.1.71-.39,1.36-.88,1.97-1.44.06-.05.11-.11.17-.16.47-.44.93-.92,1.36-1.41,2.05-2.41,3.44-5.38,4.45-8.43.92-3.07,1.5-6.31,1.2-9.46"/>
</svg>