<?xml version="1.0" encoding="utf-8"?>
<!-- Generator: Adobe Illustrator 21.0.0, SVG Export Plug-In . SVG Version: 6.00 Build 0)  -->
<svg version="1.1" id="Layer_1" xmlns="http://www.w3.org/2000/svg" xmlns:xlink="http://www.w3.org/1999/xlink" x="0px" y="0px"
	 viewBox="0 0 797.859 616.735" style="enable-background:new 0 0 797.859 616.735;" xml:space="preserve">
<style type="text/css">
	.st0{fill:#FFFFFF;}
	.st1{fill:#262B40;}
	.st2{fill:#A5B6C4;}
</style>
<rect class="st0" width="797.859" height="616.735"/>
<g>
	<path class="st1" d="M197.183,395.644c0-15.844,12.099-27.866,28.099-27.866c15.923,0,28.099,12.022,28.099,27.866
		c0,15.844-12.176,27.866-28.099,27.866C209.282,423.51,197.183,411.488,197.183,395.644 M248.386,395.644
		c0-13.271-9.991-23.181-23.104-23.181c-13.112,0-23.103,9.91-23.103,23.181c0,13.271,9.991,23.181,23.103,23.181
		C238.396,418.825,248.386,408.915,248.386,395.644"/>
	<path class="st1" d="M305.397,402.67c0,11.863-8.661,20.839-20.293,20.839c-7.571,0-13.892-3.982-17.172-10.147v24.04h-4.527
		v-54.637h4.527v9.209c3.28-6.165,9.601-10.147,17.172-10.147C296.736,381.828,305.397,390.804,305.397,402.67 M300.714,402.67
		c0-9.368-7.022-16.471-16.39-16.471c-9.366,0-16.392,7.103-16.392,16.471c0,9.364,7.026,16.467,16.392,16.467
		C293.692,419.137,300.714,412.035,300.714,402.67"/>
	<path class="st1" d="M353.894,404.62h-36.526c0.934,8.586,7.804,14.672,16.938,14.672c6.476,0,12.018-3.121,14.91-7.57l3.196,2.654
		c-3.826,5.619-10.462,9.132-18.266,9.132c-12.33,0-21.538-9.055-21.538-20.918c0-11.863,8.897-20.764,20.764-20.764
		c11.782,0,20.679,8.901,20.679,20.843C354.052,403.293,353.977,403.996,353.894,404.62 M317.369,400.56h31.923
		c-0.934-8.507-7.493-14.516-16.002-14.516C324.786,386.044,318.303,392.053,317.369,400.56"/>
	<path class="st1" d="M400.288,398.453v24.119h-4.531v-22.791c0-8.194-5.383-13.581-13.5-13.581
		c-8.432,0-14.128,5.461-14.128,13.736v22.636h-4.531v-39.808h4.531v7.493c2.963-5.386,8.429-8.43,15.45-8.43
		C393.57,381.827,400.288,388.385,400.288,398.453"/>
	<path class="st1" d="M445.424,412.114h-23.103l-3.824,10.458h-11.632l20.764-53.855h12.723l20.687,53.855H449.25L445.424,412.114z
		 M441.758,402.2l-7.881-21.621l-7.963,21.621H441.758z"/>
	<polygon class="st1" points="501.651,412.426 501.651,422.572 467.39,422.572 467.39,368.717 478.162,368.717 478.162,412.426 	"/>
	<path class="st1" d="M551.008,386.667c0,10.225-8.04,17.954-18.502,17.954h-12.723v17.951h-10.771v-53.855h23.495
		C542.968,368.716,551.008,376.444,551.008,386.667 M539.924,386.667c0-4.449-3.28-7.804-7.652-7.804h-12.489v15.608h12.489
		C536.643,394.471,539.924,391.116,539.924,386.667"/>
	<path class="st1" d="M575.304,403.372h-6.399v19.2h-10.773v-53.855h22.951c10.385,0,18.266,7.568,18.266,17.639
		c0,7.727-4.919,13.892-12.101,16.156l13.429,20.06h-12.96L575.304,403.372z M568.905,394.004h11.941
		c4.214,0,7.418-3.277,7.418-7.57c0-4.293-3.203-7.571-7.418-7.571h-11.941V394.004z"/>
	<polygon class="st2" points="408.958,433.01 402.499,453.746 398.35,453.746 394.264,439.349 390.147,453.746 386.03,453.746 
		379.539,433.01 383.924,433.01 388.194,448.093 392.491,433.01 396.128,433.01 400.427,448.093 404.691,433.01 	"/>
	<polygon class="st2" points="436.384,449.84 436.384,453.745 422.294,453.745 422.294,433.011 436.238,433.011 436.238,436.916 
		426.438,436.916 426.438,441.361 435.24,441.361 435.24,445.271 426.438,445.271 426.438,449.84 	"/>
	<path class="st2" d="M466.8,448.129c0,3.271-2.492,5.617-5.829,5.617h-10.426V433.01h9.734c3.096,0,5.501,2.222,5.501,5.289
		c0,1.954-1.02,3.665-2.404,4.445C465.388,443.466,466.8,445.658,466.8,448.129 M454.568,436.735v4.567h4.691
		c1.232,0,2.253-0.99,2.253-2.281c0-1.296-0.962-2.286-2.253-2.286H454.568z M462.532,447.406c0-1.442-1.108-2.586-2.581-2.586
		h-5.383v5.195h5.383C461.423,450.015,462.532,448.879,462.532,447.406"/>
	<polygon class="st2" points="497.815,433.01 497.815,453.746 493.669,453.746 493.669,445.272 484.475,445.272 484.475,453.746 
		480.328,453.746 480.328,433.01 484.475,433.01 484.475,441.36 493.669,441.36 493.669,433.01 	"/>
	<path class="st2" d="M511.76,443.378c0-6.099,4.721-10.732,10.942-10.732c6.221,0,10.936,4.633,10.936,10.732
		c0,6.099-4.715,10.732-10.936,10.732C516.481,454.11,511.76,449.477,511.76,443.378 M529.37,443.378
		c0-3.847-2.885-6.731-6.667-6.731c-3.789,0-6.673,2.885-6.673,6.731s2.885,6.731,6.673,6.731
		C526.485,450.109,529.37,447.225,529.37,443.378"/>
	<path class="st2" d="M546.528,443.378c0-6.099,4.721-10.732,10.942-10.732c6.221,0,10.936,4.633,10.936,10.732
		c0,6.099-4.715,10.732-10.936,10.732C551.249,454.11,546.528,449.477,546.528,443.378 M564.137,443.378
		c0-3.847-2.885-6.731-6.667-6.731c-3.789,0-6.673,2.885-6.673,6.731s2.885,6.731,6.673,6.731
		C561.252,450.109,564.137,447.225,564.137,443.378"/>
	<polygon class="st2" points="588.414,445.993 586.49,448.092 586.49,453.745 582.345,453.745 582.345,433.011 586.49,433.011 
		586.49,442.475 594.999,433.011 600.288,433.011 591.122,443.015 600.676,453.745 595.269,453.745 	"/>
	<path class="st1" d="M431.753,296.503c8.896-15.685,10.927-31.938,6.943-48.861c-0.229-0.966-0.478-1.924-0.748-2.883
		c-0.052,0.182-0.109,0.364-0.161,0.546c-2.236,7.487-4.546,15.231-6.874,22.834c-1.645,5.37-4.385,9.953-8.143,13.626
		c-0.416,0.407-0.85,0.791-1.29,1.165l-8.031,28.789C413.448,311.719,426.064,307.516,431.753,296.503"/>
	<path class="st2" d="M372.255,309.951l-8.151,29.22l5.446,1.519l7.926-28.41C375.697,311.633,373.951,310.858,372.255,309.951"/>
	<path class="st2" d="M396.813,245.317l-6.056-1.69l-8.956,32.099c0.81,1.83,1.891,3.578,3.248,5.238
		c0.281,0.343,0.591,0.653,0.891,0.977l10.263-36.794L396.813,245.317z"/>
	<polygon class="st2" points="402.724,264.32 410.542,263.346 404.352,258.485 	"/>
	<path class="st2" d="M402.525,271.187l-5.111-1.425l-1.2,4.297c-0.401,1.444,0.403,2.847,1.868,3.256
		c1.444,0.403,2.841-0.386,3.245-1.831L402.525,271.187z"/>
	<path class="st2" d="M408.119,272.747l-4.612-1.287l-1.075,3.854c-0.341,1.221,0.364,2.554,1.68,2.922
		c1.315,0.368,2.569-0.339,2.931-1.635L408.119,272.747z"/>
	<path class="st2" d="M395.018,316.034l0.617,0.173l-0.105-0.454C395.361,315.851,395.193,315.944,395.018,316.034"/>
	<polygon class="st2" points="408.096,322.823 419.134,283.257 427.343,253.834 421.894,252.313 412.084,287.483 405.073,312.616 
		395.242,347.857 400.688,349.378 	"/>
	<path class="st2" d="M410.946,287.898l10-35.849l-23.795-6.637l-10.428,37.375c1.425,1.395,3.031,2.56,4.76,3.518
		c0.039-0.225,0.083-0.448,0.144-0.675c1.06-3.796,4.711-5.87,8.472-4.822c3.704,1.033,5.743,4.604,4.792,8.34
		c-0.405,0.032-0.812,0.054-1.221,0.066c0.022-0.069,0.051-0.133,0.069-0.204c0.868-3.111-0.821-6.139-3.97-7.016
		c-3.149-0.878-6.163,0.836-7.029,3.948c-0.09,0.317-0.143,0.634-0.178,0.947c0.135,0.066,0.276,0.116,0.411,0.178
		c0.024-0.013,0.045-0.03,0.069-0.041c1.483-0.797,3.331-1.221,5.158-0.788c1.692,0.441,3.147,1.596,4.143,2.98
		c0.068,0.096,0.141,0.189,0.204,0.289c0.204,0.319,0.383,0.649,0.553,0.981c0.21,0.407,0.398,0.822,0.563,1.243
		c0.347,0.889,0.606,1.806,0.773,2.729c0.623,3.455,0.231,6.96-0.771,10.233c-1.058,3.256-2.738,6.36-5.233,8.83
		c-0.083,0.083-0.173,0.156-0.257,0.236c-0.523,0.499-1.082,0.968-1.682,1.388l0.414,1.795l-0.221,0.795l-3.457-0.964
		c-1.493,0.426-3.151,0.461-4.631-0.09c-1.075-0.426-1.967-1.123-2.673-1.947l-2.022-0.565l0.043-0.148
		c-1.872-0.328-3.723-0.803-5.544-1.412l-7.905,28.343l-0.737-0.204l24.532,6.844l9.71-34.806L410.946,287.898z M397.285,266.216
		l0.356-1.277l3.909-0.488l1.87-6.705l-3.093-2.44l0.347-1.24l11.276,8.956l-0.381,1.369L397.285,266.216z M403.953,279.451
		c-1.315-0.368-2.209-1.455-2.356-2.573c-0.748,1.388-2.365,2.035-4.014,1.575c-1.982-0.553-3.027-2.461-2.474-4.443l1.577-5.651
		l12.78,3.565l-1.452,5.206C407.509,278.945,405.768,279.957,403.953,279.451 M380.873,325.043l2.29-8.205l0.908,0.253l4.203,6.763
		c0.711,1.095,1.42,1.992,2.457,2.281c1.463,0.409,2.751-0.49,3.181-2.026c0.383-1.371-0.045-2.708-1.033-3.744l0.936-0.636
		c1.2,1.212,1.72,2.995,1.23,4.754c-0.615,2.204-2.515,3.43-4.589,2.853c-1.352-0.377-2.211-1.375-3.012-2.658l-3.655-5.93
		l-1.84,6.594L380.873,325.043z M392.244,334.52c-0.671,2.408-2.549,3.7-4.439,3.173c-1.352-0.377-2.221-1.557-2.329-3.025
		c-0.934,1.416-2.483,2.102-4.057,1.664c-2.112-0.589-3.128-2.888-2.393-5.52c0.469-1.684,1.577-3.153,3.072-3.933l0.638,0.936
		c-1.272,0.625-2.185,1.827-2.579,3.233c-0.553,1.982,0.18,3.723,1.716,4.152c1.538,0.428,3.074-0.64,3.58-2.455l0.557-2.001
		l1.002,0.279l-0.559,2.001c-0.45,1.611,0.219,3.076,1.534,3.442c1.333,0.373,2.68-0.589,3.177-2.369
		c0.356-1.277,0.197-2.639-0.533-3.601l0.983-0.444C392.48,331.313,392.673,332.984,392.244,334.52"/>
	<path class="st1" d="M401.595,294.859c-0.039-0.411-0.094-0.82-0.163-1.227c-0.068-0.413-0.159-0.818-0.266-1.215
		c-0.161-0.602-0.36-1.187-0.628-1.735c-0.317-0.641-0.72-1.227-1.204-1.72c-0.467-0.476-1.011-0.868-1.634-1.137
		c-1.013-0.396-2.187-0.426-3.34-0.156c-0.473-0.18-0.928-0.392-1.386-0.602c-0.135-0.062-0.276-0.114-0.411-0.178
		c-0.368-0.18-0.722-0.384-1.078-0.583c-1.729-0.96-3.335-2.123-4.76-3.518c-0.274-0.268-0.523-0.563-0.784-0.846
		c-0.298-0.324-0.61-0.634-0.891-0.977c-1.358-1.66-2.438-3.408-3.246-5.238c-2.367-5.355-2.378-11.418-0.013-18.102
		c2.954-8.353,8.252-15.816,16.679-23.489c11.03-10.043,23.461-18.444,35.483-26.569c4.467-3.02,13.202-8.678,20.908-13.671
		c5.285-3.425,10.223-6.622,13.271-8.635l29.279-18.776c-6.313,0.613-13.307,0.964-20.383,0.557
		c-5.66-0.326-12.988-1.129-20.06-4.417c-0.071,3.215-0.143,6.427-0.195,9.642l-0.032,1.889l-1.635,0.949
		c-7.343,4.256-20.37,11.885-24.142,14.153c-15.655,9.415-33.793,20.936-49.617,34.988c-12.406,11.017-20.165,20.677-25.152,31.327
		c-3.571,7.618-5.24,14.111-5.259,20.436c-0.03,10.366,4.726,20.616,13.048,28.123c2.558,2.307,5.343,4.252,8.273,5.82
		c1.695,0.908,3.442,1.682,5.221,2.329c0.309,0.113,0.617,0.227,0.928,0.332c1.821,0.61,3.672,1.084,5.544,1.412
		c0.533,0.092,1.067,0.167,1.604,0.236c0.724,0.094,1.448,0.171,2.174,0.221c0.679,0.047,1.356,0.077,2.035,0.086
		c1.03,0.013,2.059-0.026,3.085-0.101c0.071-0.036,0.144-0.06,0.214-0.098c0.66-0.364,1.268-0.825,1.84-1.343
		c0.052-0.047,0.103-0.099,0.156-0.148c0.443-0.414,0.868-0.855,1.268-1.32c1.913-2.249,3.211-5.028,4.154-7.87
		C401.334,300.821,401.878,297.799,401.595,294.859"/>
</g>
</svg>
