<?xml version="1.0" standalone="no"?>
<!DOCTYPE svg PUBLIC "-//W3C//DTD SVG 20010904//EN"
 "http://www.w3.org/TR/2001/REC-SVG-20010904/DTD/svg10.dtd">
<svg version="1.0" xmlns="http://www.w3.org/2000/svg"
 width="700.000000pt" height="700.000000pt" viewBox="0 0 700.000000 700.000000"
 preserveAspectRatio="xMidYMid meet">
<metadata>
Created by potrace 1.14, written by Peter Selinger 2001-2017
</metadata>
<g transform="translate(0.000000,700.000000) scale(0.100000,-0.100000)"
fill="#000000" stroke="none">
<path d="M4900 6993 c-109 -17 -262 -80 -358 -145 -105 -72 -222 -214 -282
-343 -65 -141 -86 -343 -52 -510 23 -109 96 -269 152 -335 98 -113 157 -165
248 -216 l62 -36 1 -251 c3 -1192 0 -3126 -5 -3182 -60 -621 -527 -1129 -1151
-1251 -125 -24 -388 -24 -505 0 -379 78 -686 273 -897 570 -52 73 -143 240
-174 321 -13 32 -48 148 -53 175 -3 14 -7 36 -10 50 -20 98 -25 165 -21 310 3
159 13 229 50 357 17 58 42 81 95 87 32 4 43 -5 181 -140 89 -88 154 -144 166
-144 11 0 32 9 47 21 l26 20 0 756 c0 833 3 797 -63 839 -52 34 -101 26 -194
-30 -137 -83 -254 -176 -389 -311 -209 -208 -340 -398 -451 -655 -118 -272
-172 -537 -171 -840 1 -201 18 -338 64 -522 155 -619 607 -1151 1199 -1410
145 -64 351 -126 474 -144 20 -3 42 -7 49 -9 77 -26 506 -26 655 0 15 3 37 7
50 9 59 10 201 48 282 74 306 101 586 273 821 507 282 282 468 608 564 995 34
135 45 201 56 340 4 41 7 834 8 1761 1 1748 0 1719 38 1719 18 0 121 74 180
129 110 102 189 232 233 386 38 131 40 293 6 425 -62 239 -225 438 -446 545
-121 58 -205 77 -345 80 -63 1 -126 0 -140 -2z m217 -549 c68 -21 142 -86 174
-151 34 -72 33 -189 -3 -259 -93 -178 -330 -219 -472 -81 -62 60 -81 110 -81
212 0 75 4 97 23 134 69 129 218 189 359 145z"/>
</g>
</svg>
