<?xml version="1.0" encoding="utf-8"?>
<!-- Generator: Adobe Illustrator 27.5.0, SVG Export Plug-In . SVG Version: 6.00 Build 0)  -->
<svg version="1.1" id="Layer_1" xmlns="http://www.w3.org/2000/svg" xmlns:xlink="http://www.w3.org/1999/xlink" x="0px" y="0px"
	 viewBox="0 0 1024 1024" style="enable-background:new 0 0 1024 1024;" xml:space="preserve">
<path d="M782,712.4c0,168.2-136.8,305-305,305c-168.2,0-305-136.8-305-305c0-56.8,15.6-110,42.7-155.6
	c27.2-45.6,65.9-83.6,112.1-109.9c12.9-7.3,28.9,2,28.9,16.8V674c0,8.8-10.6,13.2-16.8,7l-34.4-34.4c-7.1-7.1-19.2-4.1-22.2,5.6
	c-5.9,19.1-9.1,39.3-9.1,60.3c0,112.4,91.5,203.9,203.9,203.9c112,0,203.2-90.8,203.9-202.7V207.7H782V712.4z"/>
<path d="M680.9,301.5c16.1,4.7,33,7.2,50.6,7.2c17.5,0,34.5-2.5,50.6-7.2v-93.7H680.9V301.5z"/>
<path d="M731.5,6.6C664.9,6.6,611,60.6,611,127.1s53.9,120.5,120.5,120.5S852,193.7,852,127.1S798,6.6,731.5,6.6z M731.5,170
	c-23.7,0-42.9-19.2-42.9-42.9s19.2-42.9,42.9-42.9s42.9,19.2,42.9,42.9S755.2,170,731.5,170z"/>
</svg>
