<?xml version="1.0" standalone="no"?>
<!DOCTYPE svg PUBLIC "-//W3C//DTD SVG 20010904//EN"
 "http://www.w3.org/TR/2001/REC-SVG-20010904/DTD/svg10.dtd">
<svg version="1.0" xmlns="http://www.w3.org/2000/svg"
 width="800.000000pt" height="800.000000pt" viewBox="0 0 800.000000 800.000000"
 preserveAspectRatio="xMidYMid meet">
<metadata>
Created by potrace 1.14, written by Peter Selinger 2001-2017
</metadata>
<g transform="translate(0.000000,800.000000) scale(0.100000,-0.100000)"
fill="#000000" stroke="none">
<path d="M5409 7987 c0 -10 -5 -225 -8 -422 l-1 -60 -87 -50 c-48 -27 -93 -51
-100 -53 -7 -2 -13 -8 -13 -13 0 -5 -4 -9 -10 -9 -5 0 -56 -28 -112 -61 -57
-34 -117 -70 -135 -80 -107 -60 -249 -144 -253 -149 -3 -4 -12 -9 -21 -12 -21
-8 -643 -381 -752 -451 -48 -31 -90 -57 -92 -57 -2 0 -53 -32 -112 -70 -134
-87 -119 -77 -236 -155 -54 -36 -102 -65 -107 -65 -4 0 -10 -4 -12 -8 -1 -5
-39 -33 -83 -62 -44 -29 -81 -57 -83 -62 -2 -4 -8 -8 -13 -8 -8 0 -99 -59
-109 -71 -3 -3 -39 -30 -80 -59 -41 -29 -76 -57 -78 -62 -2 -4 -8 -8 -13 -8
-6 0 -15 -5 -22 -10 -10 -9 -135 -104 -207 -159 -22 -17 -170 -133 -195 -153
-31 -26 -143 -119 -165 -138 -99 -86 -148 -129 -172 -152 -16 -16 -31 -28 -34
-28 -9 0 -409 -403 -476 -480 -184 -212 -378 -493 -473 -685 -11 -22 -23 -41
-27 -43 -5 -2 -8 -9 -8 -15 0 -7 -11 -32 -24 -57 -13 -25 -24 -49 -24 -53 -1
-4 -12 -31 -25 -60 -70 -150 -134 -367 -162 -552 -11 -67 -12 -356 -2 -425 20
-145 93 -364 169 -510 36 -69 135 -222 166 -255 9 -11 28 -33 40 -50 79 -101
315 -312 392 -348 8 -4 29 -16 45 -27 17 -11 42 -26 58 -35 15 -9 27 -17 27
-18 0 -2 -48 -183 -55 -207 -2 -8 -20 -71 -40 -140 -19 -69 -37 -134 -40 -145
-2 -11 -14 -51 -25 -90 -12 -38 -23 -77 -25 -85 -1 -8 -9 -35 -16 -60 -7 -25
-13 -47 -14 -50 -1 -8 -77 -283 -82 -300 -2 -8 -5 -17 -6 -20 0 -3 -11 -38
-23 -77 l-22 -73 96 -29 c120 -36 142 -41 142 -33 0 7 27 107 55 202 9 30 18
63 20 73 2 10 7 27 10 37 3 10 8 27 10 37 2 10 20 73 39 140 20 67 37 130 39
140 1 10 5 23 8 28 4 6 10 27 13 49 4 21 11 46 16 55 4 9 22 68 39 131 72 270
85 315 88 319 2 3 11 -2 19 -11 14 -14 14 -22 -6 -89 -12 -41 -23 -83 -25 -94
-2 -11 -17 -65 -33 -120 -17 -55 -33 -116 -37 -135 -4 -19 -10 -39 -13 -45 -4
-5 -7 -14 -8 -20 -3 -20 -56 -211 -70 -252 -7 -23 -16 -52 -18 -65 -3 -13 -17
-63 -31 -113 -14 -49 -28 -100 -31 -113 -2 -13 -11 -42 -18 -65 -25 -74 -29
-107 -14 -111 112 -33 656 -185 687 -191 9 -2 61 -17 116 -33 214 -63 200 -63
214 -5 7 26 39 142 72 258 33 116 62 219 64 230 2 11 4 20 5 20 1 0 3 7 5 15
36 136 83 304 114 410 11 36 31 110 46 165 14 55 29 107 32 115 3 8 7 20 8 26
6 25 67 250 72 264 3 8 7 20 8 25 2 6 17 62 35 125 17 63 33 122 36 130 2 8
26 96 54 195 28 99 53 189 56 200 7 29 9 36 22 80 21 71 94 330 97 345 2 8 4
15 5 15 1 0 3 7 5 15 2 8 13 49 25 90 11 41 23 84 25 95 3 11 14 49 24 85 11
36 34 117 51 180 33 121 68 248 102 365 10 39 20 76 20 83 1 6 5 12 10 12 5 0
7 4 4 8 -3 5 2 31 10 58 9 27 17 58 19 69 2 11 17 65 34 120 16 55 32 111 35
125 3 14 11 44 17 68 13 47 8 58 -31 66 -14 2 -99 26 -189 51 -90 26 -169 48
-175 50 -6 1 -18 4 -26 7 -14 5 -148 41 -160 43 -3 1 -21 6 -40 12 -19 6 -80
23 -135 38 -55 15 -107 29 -115 32 -8 3 -21 7 -29 9 -8 1 -25 5 -38 9 -13 3
-24 4 -26 3 -2 -2 -11 3 -20 10 -16 14 -22 2 -47 -98 -6 -25 -14 -52 -17 -60
-3 -8 -7 -20 -9 -27 -2 -12 -113 -408 -179 -643 -3 -8 -9 -33 -15 -55 -6 -22
-13 -47 -15 -55 -3 -12 -29 -106 -50 -180 -2 -8 -16 -58 -31 -110 -24 -88 -39
-143 -49 -180 -2 -8 -4 -16 -5 -17 -2 -2 -3 -6 -4 -10 -1 -5 -5 -17 -9 -28 -3
-11 -8 -31 -11 -45 -2 -14 -9 -38 -15 -54 -11 -26 -13 -28 -27 -14 -14 13 -12
27 16 129 31 110 40 143 75 274 9 33 24 87 34 120 10 33 29 98 41 145 12 47
28 104 36 126 7 23 24 84 38 135 13 52 36 137 51 189 40 143 95 343 100 360 2
8 10 36 18 63 8 26 12 49 8 51 -7 5 -141 44 -174 51 -10 2 -27 7 -36 10 -15 4
-21 -6 -37 -62 -10 -38 -19 -72 -20 -78 -1 -5 -14 -51 -28 -101 -15 -50 -28
-100 -31 -110 -2 -10 -16 -59 -30 -109 -25 -86 -31 -111 -40 -145 -2 -8 -4
-15 -5 -15 -1 0 -3 -7 -5 -15 -1 -8 -8 -35 -16 -60 -7 -25 -13 -49 -15 -55 -1
-5 -12 -44 -24 -85 -12 -41 -28 -100 -36 -130 -8 -30 -22 -80 -31 -110 -9 -30
-18 -59 -19 -65 -1 -5 -9 -37 -19 -70 -9 -33 -23 -82 -30 -110 l-13 -50 -11
28 c-41 103 -67 238 -65 342 1 64 13 196 19 206 2 3 7 20 10 37 9 56 56 193
96 286 63 144 64 146 70 146 4 0 10 11 13 24 3 14 12 31 19 38 6 7 21 31 32
52 11 22 25 44 30 50 6 6 28 38 50 71 106 159 348 418 562 601 31 27 64 56 73
64 8 8 85 71 170 138 85 68 165 132 178 143 12 10 25 19 28 19 3 0 16 9 28 20
72 66 1043 743 1089 759 7 2 14 7 17 11 3 3 50 35 105 71 55 35 102 67 103 71
2 5 7 8 12 8 4 0 64 37 134 83 145 95 338 220 516 336 69 44 130 84 135 89 6
4 28 19 50 32 22 13 117 74 210 135 94 61 229 149 300 194 72 45 171 109 220
142 50 33 97 62 105 66 8 4 20 11 25 15 6 5 147 97 315 204 168 108 307 198
310 201 3 2 -6 2 -20 -1 -101 -24 -635 -38 -875 -23 -138 9 -245 20 -299 32
-12 2 -39 7 -61 10 -89 13 -341 82 -385 106 -44 24 -90 38 -91 26z m-2269
-4017 c25 -19 50 -39 57 -45 6 -5 26 -21 44 -35 18 -14 41 -33 51 -42 10 -10
21 -18 24 -18 3 0 11 -6 19 -12 21 -21 98 -81 134 -105 2 -1 5 -14 6 -27 5
-40 -6 -45 -135 -61 -30 -4 -62 -9 -71 -10 -8 -2 -42 -6 -74 -9 -32 -4 -72 -9
-89 -11 -17 -2 -51 -7 -76 -9 -42 -5 -92 -12 -147 -21 -16 -3 -23 1 -23 13 0
31 15 40 80 48 36 4 68 9 73 10 4 1 11 2 16 3 5 0 15 25 22 54 7 28 14 54 14
57 1 3 4 12 8 20 22 55 42 157 33 166 -6 5 -29 22 -51 39 -56 41 -65 51 -65
73 0 34 12 33 59 -5 25 -20 66 -53 91 -73z m-276 -507 c3 -4 12 -8 19 -9 37
-8 169 -43 197 -53 14 -5 86 -26 161 -46 l136 -37 -38 -131 c-42 -146 -66
-180 -135 -193 -52 -10 -122 21 -143 63 -14 29 -41 45 -41 25 0 -5 -17 -18
-38 -30 -83 -46 -195 -1 -220 90 -11 41 -9 56 30 198 33 120 48 147 72 123z
m147 -540 c110 -49 175 -146 176 -264 1 -67 -4 -79 -31 -79 -21 0 -22 4 -20
63 3 71 -17 127 -63 175 -73 76 -197 98 -290 51 -51 -27 -109 -94 -119 -137
-10 -48 -12 -51 -34 -45 -19 5 -21 11 -16 41 13 84 117 192 201 210 61 14 146
7 196 -15z m-103 -225 c160 -54 261 -242 260 -485 0 -94 -4 -138 -23 -228 -32
-159 -136 -346 -255 -459 -70 -66 -70 -66 -61 -105 12 -54 3 -64 -45 -52 -21
5 -55 14 -74 19 -19 5 -47 5 -61 2 -76 -21 -189 9 -257 67 -18 15 -52 34 -75
40 -41 12 -40 12 23 6 36 -3 123 -7 195 -9 127 -2 130 -2 170 26 43 31 94 82
142 145 47 61 135 242 148 305 2 8 11 46 20 85 19 80 34 237 25 265 0 3 -3 25
-6 49 -9 88 -46 172 -97 220 -50 48 -78 58 -150 59 -111 0 -139 20 -64 45 56
18 139 21 185 5z m-618 -1315 c0 -7 96 -161 117 -188 4 -6 17 -26 27 -45 74
-134 145 -182 216 -145 64 33 83 130 40 203 -20 33 -20 35 -3 47 23 17 29 13
53 -36 22 -42 34 -136 19 -145 -5 -3 -9 -12 -9 -21 0 -24 -47 -81 -80 -98 -38
-20 -93 -19 -136 1 -50 24 -91 78 -207 277 -22 37 -43 67 -47 67 -5 0 -34 -86
-45 -135 -19 -85 -39 -133 -54 -130 -9 2 -19 4 -23 4 -3 1 -2 17 4 37 5 20 11
44 14 53 5 22 64 233 69 249 5 13 45 17 45 5z m-74 -438 c14 -13 10 -20 -30
-57 -24 -24 -48 -55 -51 -71 -4 -15 -10 -29 -14 -32 -11 -6 -5 -100 8 -124 16
-30 53 -51 94 -55 45 -5 100 38 117 92 7 20 16 41 20 46 5 5 6 14 4 21 -7 17
19 36 35 25 11 -6 12 -16 2 -51 -20 -74 -20 -77 -10 -113 11 -41 51 -76 87
-76 37 0 89 36 102 73 20 53 23 111 7 149 -13 32 -13 36 3 46 33 21 53 -24 53
-120 0 -60 -26 -130 -60 -160 -27 -25 -84 -45 -116 -42 -51 5 -117 73 -117
120 0 8 -12 1 -27 -15 -30 -31 -83 -50 -123 -44 -14 2 -31 4 -39 5 -18 2 -82
68 -76 78 3 5 0 10 -7 12 -18 6 -14 128 6 168 9 18 16 37 16 43 0 9 87 97 96
97 3 0 12 -7 20 -15z"/>
<path d="M3146 3860 c-3 -17 -6 -32 -6 -35 0 -3 -6 -21 -14 -40 -8 -19 -13
-35 -11 -35 1 0 -3 -21 -11 -47 -18 -60 -18 -63 9 -57 12 2 46 6 75 10 29 3
63 7 75 10 12 2 51 6 87 10 36 3 66 7 68 9 1 1 -29 27 -68 56 -38 30 -70 57
-70 61 0 5 -5 8 -11 8 -6 0 -32 18 -58 40 -26 22 -50 40 -53 40 -3 0 -8 -14
-12 -30z"/>
<path d="M2840 3338 c-12 -40 -24 -82 -27 -93 -27 -91 31 -168 119 -159 52 5
83 38 104 112 9 31 22 78 29 104 15 51 12 54 -45 64 -14 3 -32 7 -40 11 -8 3
-26 8 -39 10 -14 2 -32 8 -42 14 -32 17 -38 10 -59 -63z"/>
<path d="M3104 3282 c-8 -31 -20 -70 -25 -86 -13 -42 -11 -73 7 -102 18 -27
60 -51 84 -49 8 1 25 3 37 3 22 2 61 47 68 79 2 10 13 48 23 86 11 37 17 69
13 70 -6 4 -55 18 -138 41 l-53 15 -16 -57z"/>
<path d="M4587 4454 c-27 -92 -70 -232 -74 -244 -3 -8 -7 -19 -9 -25 -7 -30
-49 -171 -99 -335 -31 -102 -67 -223 -81 -269 -60 -203 -116 -334 -199 -463
-55 -84 -81 -117 -173 -211 -36 -37 -67 -73 -68 -80 -2 -15 -108 -391 -130
-464 -9 -29 -17 -58 -18 -65 -2 -7 -8 -33 -15 -58 -8 -25 -14 -49 -15 -55 -2
-5 -8 -30 -15 -55 -7 -25 -15 -52 -16 -60 -2 -8 -20 -71 -39 -140 -47 -163
-57 -199 -57 -205 0 -2 -6 -23 -14 -46 -18 -50 -18 -59 -4 -59 18 0 219 100
266 131 23 16 46 29 51 29 6 0 12 3 14 8 2 4 37 32 78 63 115 86 222 197 297
309 43 64 162 290 202 385 19 44 38 84 43 89 4 6 8 16 8 22 0 7 5 25 12 41 6
15 12 30 13 33 1 3 5 12 8 20 38 91 116 412 132 550 4 30 9 73 12 95 8 65 8
474 0 545 -14 120 -23 183 -37 255 -5 28 -11 59 -13 70 -8 49 -40 181 -47 194
-6 11 -9 10 -13 -5z"/>
<path d="M3902 4153 c2 -10 -12 -75 -20 -88 -4 -5 -7 -17 -9 -25 -1 -8 -14
-55 -28 -105 -15 -49 -28 -97 -30 -105 -2 -8 -11 -42 -20 -75 -9 -33 -23 -82
-30 -110 -8 -27 -19 -67 -25 -89 -6 -21 -13 -46 -15 -55 -2 -9 -13 -47 -25
-86 -12 -38 -23 -77 -25 -86 -6 -30 -146 -534 -152 -549 -3 -8 -7 -19 -9 -25
-1 -5 -7 -28 -12 -50 -13 -50 -48 -177 -102 -365 -22 -80 -43 -152 -44 -160
-2 -8 -10 -35 -17 -60 -7 -25 -13 -51 -15 -58 -1 -6 -14 -49 -28 -95 -14 -45
-27 -94 -30 -109 -2 -15 -7 -32 -11 -38 -3 -5 -8 -19 -11 -30 -2 -11 -6 -28
-8 -39 -2 -10 -9 -36 -16 -57 -11 -37 -49 -178 -55 -199 -1 -5 -5 -17 -8 -25
-3 -8 -16 -51 -27 -95 -11 -44 -23 -87 -25 -95 -2 -8 -18 -64 -35 -125 -17
-60 -33 -117 -35 -125 -13 -46 -48 -172 -60 -215 -7 -27 -32 -117 -55 -200
-23 -82 -44 -157 -45 -165 -2 -8 -4 -15 -5 -15 -1 0 -3 -7 -5 -15 -2 -8 -13
-49 -25 -90 -48 -173 -62 -226 -67 -246 -4 -18 6 -23 108 -51 115 -32 129 -33
129 -8 0 7 45 174 100 372 56 197 112 401 126 453 14 52 27 98 29 101 2 3 7
21 10 39 3 18 9 38 13 44 3 6 7 16 8 21 3 13 41 156 61 224 8 29 16 59 17 65
2 6 9 31 16 56 7 25 14 50 16 56 1 7 19 70 39 140 20 71 39 136 41 144 2 8 10
40 19 70 9 30 21 72 26 92 5 21 27 102 50 180 22 79 42 154 45 167 3 14 7 28
10 33 3 4 7 17 10 28 2 11 6 29 9 40 3 11 7 30 10 43 3 12 9 33 14 47 9 23 28
91 36 130 2 8 10 34 19 58 8 23 13 42 11 42 -3 0 0 12 6 28 6 15 12 34 14 42
3 14 27 102 76 275 11 39 22 81 25 94 3 14 7 28 10 33 3 4 7 16 9 25 11 51
139 512 172 623 9 30 18 61 19 69 2 8 6 26 10 40 4 14 8 28 8 31 1 3 5 11 9
18 5 6 6 12 4 12 -3 0 3 28 14 62 10 34 15 65 11 69 -4 4 -50 19 -102 33 -52
15 -103 29 -113 32 -10 3 -17 2 -15 -3z"/>
</g>
</svg>
